<svg width="48" height="48" viewBox="0 0 48 48" fill="none" xmlns="http://www.w3.org/2000/svg">
<rect width="48" height="48" rx="3" fill="#FAFAFA"/>
<g clip-path="url(#clip0_890_2331)">
<path d="M23.6696 25.2009L14.959 21.7493V31.5138C15.6335 31.3768 16.3238 31.3083 17.0352 31.3083C19.7649 31.3083 22.2258 32.3464 23.6802 34.0433C25.1345 32.3465 27.5902 31.3083 30.3251 31.3083C31.0365 31.3083 31.7373 31.3768 32.4013 31.5138V21.9917L24.3125 25.2061H23.6696V25.2009Z" fill="white"/>
<path d="M39.4361 17.5495L24.3229 11.5527C24.1174 11.4684 23.875 11.4684 23.6695 11.5527L8.54585 17.5495C7.77652 17.9131 7.8608 18.9406 8.54585 19.2041L13.1831 21.0432V32.6784C13.2252 33.2634 13.7048 33.7429 14.3635 33.5163C15.2014 33.2265 16.1024 33.0842 17.0404 33.0842C19.6489 33.0842 22.0044 34.2698 22.9002 36.0247C23.2427 36.6359 24.1122 36.7097 24.4864 36.0194C25.3769 34.2646 27.7219 33.0842 30.3304 33.0842C31.2683 33.0842 32.1747 33.2265 33.0073 33.5163C33.5816 33.7113 34.1719 33.2792 34.1877 32.6784V21.2856L38.2189 19.6836V28.6208C38.2189 29.1109 38.6141 29.5114 39.1095 29.5114C39.5996 29.5114 40 29.1162 40 28.6208V18.382C39.9999 18.0027 39.7786 17.7444 39.4361 17.5495ZM32.4117 31.5138C31.7372 31.3768 31.0469 31.3083 30.3355 31.3083C27.6058 31.3083 25.1449 32.3464 23.6906 34.0433C22.2309 32.3465 19.7647 31.3083 17.0456 31.3083C16.3343 31.3083 15.6334 31.3768 14.9694 31.5138V21.7493L23.68 25.2008H24.3335L32.4223 21.9864V31.5085H32.4117V31.5138ZM23.9962 23.4198L11.286 18.382L23.9962 13.3443L36.6959 18.382L23.9962 23.4198Z" fill="#3F4145"/>
<path d="M16.7296 24.3735H19.1377C19.6278 24.3735 20.0283 24.7687 20.0283 25.2641C20.0283 25.7541 19.6331 26.1546 19.1377 26.1546H16.7296V27.6828H17.8889C18.3789 27.6828 18.7794 28.0779 18.7794 28.5733C18.7794 29.0634 18.3842 29.4638 17.8889 29.4638H16.7296V29.5323C16.8297 29.5323 20.9927 29.4954 23.6749 31.6296C25.4402 30.3016 27.7904 29.527 30.3198 29.527C30.4199 29.527 30.5201 29.527 30.6202 29.5323V23.3247H29.034L24.323 25.1954H23.6696L18.9533 23.3247H16.7295L16.7296 24.3735Z" fill="#D8CBE5"/>
<path d="M23.9962 23.4197L24.2175 23.3301H23.7749L23.9962 23.4197Z" fill="#D8CBE5"/>
<path d="M11.2861 18.382L23.9964 23.4197L36.6961 18.382L23.9964 13.3337L11.2861 18.382Z" fill="#D8CBE5"/>
</g>
<defs>
<clipPath id="clip0_890_2331">
<rect width="32" height="32" fill="white" transform="translate(8 8)"/>
</clipPath>
</defs>
</svg>
