<svg width="48" height="48" viewBox="0 0 48 48" fill="none" xmlns="http://www.w3.org/2000/svg">
<rect width="48" height="48" rx="3" fill="#FAFAFA"/>
<path d="M30.9132 31.7424C30.3195 33.3211 29.5702 34.7066 28.6606 35.7339C30.753 34.9045 32.6097 33.4814 33.9527 31.7424H30.9132Z" fill="white"/>
<path d="M24.792 30.164H29.7684C30.2443 28.5429 30.5601 26.7286 30.6355 24.7917H24.792V30.164Z" fill="white"/>
<path d="M29.217 31.7424H24.792V36.5633C26.5685 36.1298 28.1473 34.3107 29.217 31.7424Z" fill="white"/>
<path d="M24.792 11.4365V16.2574H29.217C28.1473 13.6891 26.5685 11.87 24.792 11.4365Z" fill="white"/>
<path d="M29.7679 17.8359H24.7915V23.2082H30.6396C30.5596 21.276 30.2439 19.4571 29.7679 17.8359Z" fill="white"/>
<path d="M35.0604 17.8359H31.4648C31.8984 19.457 32.1765 21.2713 32.2141 23.2082H36.6391C36.4837 21.276 35.9323 19.4571 35.0604 17.8359Z" fill="white"/>
<path d="M28.7031 12.2659C29.6126 13.3309 30.3619 14.6739 30.9557 16.2574H34.0377C32.6145 14.5184 30.7955 13.0953 28.7031 12.2659Z" fill="white"/>
<path d="M31.4268 30.164H35.0224C35.9319 28.5429 36.4832 26.7286 36.6011 24.7917H32.2137C32.1383 26.7239 31.8603 28.5052 31.4268 30.164Z" fill="white"/>
<path d="M16.5732 30.164C16.1397 28.5429 15.8616 26.7286 15.8239 24.7917H11.3989C11.5167 26.7286 12.0728 28.5429 12.9776 30.164H16.5732Z" fill="white"/>
<path d="M23.2082 24.7917H17.3647C17.4449 26.7286 17.7181 28.5429 18.2318 30.164H23.2082V24.7917Z" fill="white"/>
<path d="M19.2971 35.7339C18.3876 34.6689 17.6383 33.3259 17.0445 31.7424H13.9673C15.3857 33.4814 17.2047 34.9045 19.2971 35.7339Z" fill="white"/>
<path d="M18.7832 16.2574H23.2082V11.4365C21.4317 11.87 19.853 13.6891 18.7832 16.2574Z" fill="white"/>
<path d="M11.3989 23.2082H15.8239C15.8616 21.2713 16.1396 19.4948 16.5732 17.8359H12.9399C12.0681 19.4571 11.5168 21.276 11.3989 23.2082Z" fill="white"/>
<path d="M23.2082 36.5635V31.7427H18.7832C19.853 34.3109 21.4317 36.1299 23.2082 36.5635Z" fill="white"/>
<path d="M23.2082 17.8359H18.2318C17.7559 19.457 17.4401 21.2713 17.3647 23.2082H23.2129V17.8359H23.2082Z" fill="white"/>
<path d="M14.0049 16.2574H17.0869C17.6806 14.6787 18.4299 13.2932 19.3394 12.2659C17.2047 13.0953 15.3856 14.5184 14.0049 16.2574Z" fill="white"/>
<path d="M24.0001 35.0602C17.9163 35.0602 12.9399 30.0838 12.9399 24.0001C12.9399 17.9163 17.9163 12.9399 24.0001 12.9399C30.0839 12.9399 35.0602 17.9163 35.0602 24.0001C35.0602 30.0838 30.0839 35.0602 24.0001 35.0602Z" fill="#D8CBE5"/>
<path d="M24.0001 9.77783C16.1397 9.77783 9.77783 16.1397 9.77783 24.0001C9.77783 31.8604 16.1397 38.2223 24.0001 38.2223C31.8604 38.2223 38.2223 31.8604 38.2223 24.0001C38.2223 16.1397 31.8604 9.77783 24.0001 9.77783ZM32.2186 23.2083C32.1809 21.2715 31.9029 19.4949 31.4693 17.8361H35.0649C35.9744 19.4572 36.5257 21.2715 36.6436 23.2083H32.2186ZM36.6012 24.7918C36.4834 26.7286 35.9274 28.5429 35.0225 30.164H31.4269C31.8605 28.5429 32.1385 26.7286 32.1762 24.7918H36.6012ZM30.9132 16.2575C30.3195 14.6788 29.5702 13.2933 28.6607 12.266C30.753 13.0954 32.572 14.5185 33.9528 16.2575H30.9132ZM24.7918 23.2083V17.8361H29.7682C30.2441 19.4572 30.5599 21.2715 30.6353 23.2083H24.7918ZM30.6352 24.7918C30.5551 26.7286 30.2818 28.5429 29.7681 30.164H24.7917V24.7918H30.6352ZM24.7918 16.2575V11.4367C26.5684 11.8702 28.1518 13.6892 29.2168 16.2575H24.7918ZM24.7918 31.7426H29.2168C28.1518 34.3109 26.5684 36.1299 24.7918 36.5635V31.7426ZM28.7031 35.7341C29.6126 34.6691 30.3619 33.3261 30.9556 31.7426H34.0376C32.6145 33.4816 30.7954 34.9047 28.7031 35.7341ZM18.232 30.164C17.7561 28.5429 17.4403 26.7286 17.3649 24.7918H23.2131V30.164H18.232ZM23.2083 31.7426V36.5635C21.4317 36.1299 19.8483 34.3109 18.7833 31.7426H23.2083ZM17.3649 23.2083C17.445 21.2715 17.7183 19.4572 18.232 17.8361H23.2084V23.2083H17.3649ZM17.0869 16.2575H14.0049C15.3856 14.4809 17.2047 13.0954 19.297 12.266C18.4299 13.331 17.6382 14.6741 17.0869 16.2575ZM16.5732 17.8361C16.1397 19.4572 15.8616 21.2715 15.8239 23.2083H11.3989C11.5167 21.2715 12.0727 19.4572 12.9776 17.8361H16.5732ZM15.7815 24.7918C15.8192 26.7286 16.0973 28.5052 16.5308 30.164H12.9399C12.0304 28.5429 11.4791 26.7286 11.3612 24.7918H15.7815ZM17.0869 31.7426C17.6806 33.3213 18.4299 34.7068 19.3394 35.7341C17.2471 34.9047 15.3904 33.4816 14.0473 31.7426H17.0869ZM23.2083 16.2575H18.7833C19.8483 13.6892 21.4317 11.8702 23.2083 11.4367V16.2575Z" fill="#3F4145"/>
</svg>
