<svg width="9" height="13" viewBox="0 0 9 13" fill="none" xmlns="http://www.w3.org/2000/svg">
<path d="M4.50006 0.324951C2.05242 0.324951 0.0683594 2.20995 0.0683594 4.53578C0.0683594 5.42953 0.363901 6.29793 0.909303 7.00578C0.925553 7.09668 0.955514 7.18453 0.999187 7.26578L3.63013 12.1682C3.80786 12.481 4.13997 12.6745 4.50001 12.6745C4.86004 12.6745 5.19215 12.481 5.36989 12.1682L8.00083 7.25668C8.0445 7.17543 8.07446 7.08758 8.09071 6.99668C8.6361 6.28879 8.93166 5.42043 8.93166 4.52668C8.93166 2.21008 6.9476 0.325081 4.49996 0.325081L4.50006 0.324951ZM4.38834 6.31821C3.40167 6.31821 2.60084 5.5575 2.60084 4.62054C2.60084 3.68312 3.40167 2.92287 4.38834 2.92287C5.37501 2.92287 6.17584 3.68358 6.17584 4.62054C6.17584 5.5575 5.37501 6.31821 4.38834 6.31821Z" fill="#6277F0"/>
</svg>
