<svg width="48" height="48" viewBox="0 0 48 48" fill="none" xmlns="http://www.w3.org/2000/svg">
<rect width="48" height="48" rx="3" fill="#FAFAFA"/>
<path d="M27.6469 34.0318L20.2695 36.3184V20.9333L22.0433 20.3828C23.6618 24.0903 26.8941 28.5459 27.6045 29.4962V34.0318H27.6469V34.0318Z" fill="#D8CBE5"/>
<path d="M28.3575 11.3916C25.2428 11.3916 22.7163 13.9181 22.7163 17.0328C22.7163 19.437 26.3438 25.0406 28.3575 27.84C30.3712 25.0406 33.9987 19.437 33.9987 17.0328C33.994 13.9181 31.4722 11.3916 28.3575 11.3916Z" fill="#D8CBE5"/>
<path d="M28.3577 14.5486C26.9792 14.5486 25.8735 15.6542 25.8735 17.0328C25.8735 18.4113 26.9792 19.5169 28.3577 19.5169C29.7362 19.5169 30.8419 18.4113 30.8419 17.0328C30.8419 15.6542 29.7362 14.5486 28.3577 14.5486Z" fill="white"/>
<path d="M32.4178 17.0329C32.4178 14.7839 30.6016 12.9678 28.3527 12.9678C26.1037 12.9678 24.2876 14.7839 24.2876 17.0329C24.2876 19.2818 26.1037 21.0979 28.3527 21.0979C30.6016 21.0979 32.4178 19.2818 32.4178 17.0329ZM25.8686 17.0329C25.8686 15.6543 26.9742 14.5487 28.3528 14.5487C29.7313 14.5487 30.8369 15.6543 30.8369 17.0329C30.8369 18.4114 29.7313 19.517 28.3528 19.517C27.0165 19.517 25.8686 18.4161 25.8686 17.0329Z" fill="#3F4145"/>
<path d="M29.2231 29.3409V34.074L36.6005 36.3606V20.9756L34.6667 20.3828C33.1658 23.855 30.1688 28.0377 29.2231 29.3409Z" fill="white"/>
<path d="M11.354 34.0318L18.7313 36.3607V20.9756L11.354 18.689V34.0318Z" fill="#F2EFF4"/>
<path d="M37.6262 19.6346L35.2173 18.8865C35.4525 18.1761 35.5702 17.5456 35.5702 16.9951C35.5702 13.0101 32.3379 9.77783 28.3529 9.77783C24.3678 9.77783 21.1355 13.0101 21.1355 16.9952C21.1355 17.5457 21.2531 18.2185 21.4883 18.929L19.4747 19.5594L10.8035 16.8352C10.2907 16.6753 9.77783 17.0705 9.77783 17.5833V34.6246C9.77783 34.9774 10.0131 35.2551 10.3283 35.3727L19.2442 38.1768C19.3618 38.2144 19.597 38.2568 19.7193 38.1768L28.3952 35.4573L37.1134 38.1767C37.6262 38.3367 38.1391 37.9792 38.1391 37.4286V20.3875C38.1767 20.0722 37.9415 19.757 37.6262 19.6346ZM27.6471 34.0317L20.2698 36.3183V20.9332L22.0435 20.3827C23.662 24.0902 26.8944 28.5458 27.6048 29.4961V34.0317H27.6471V34.0317ZM36.6006 36.3607L29.2232 34.0741V29.3409C30.1689 28.0376 33.1283 23.8973 34.6668 20.3875L36.6006 20.9802V36.3607ZM28.3576 11.3916C31.4722 11.3916 33.9988 13.9182 33.9988 17.0328C33.9988 19.437 30.3713 25.0406 28.3576 27.84C26.3439 25.003 22.7164 19.4418 22.7164 17.0328C22.7163 13.9182 25.2805 11.3916 28.3576 11.3916ZM18.7313 36.3607L11.3539 34.0317V18.6889L18.7313 20.9755V36.3607Z" fill="#3F4145"/>
</svg>
